<?xml version="1.0" encoding="UTF-8"?> <svg xmlns="http://www.w3.org/2000/svg" width="61" height="22" viewBox="0 0 61 22" fill="none"><path d="M14.499 10.8741C14.499 10.8741 14.4965 10.8664 14.4939 10.8613C14.4654 10.7796 14.4318 10.6494 14.4008 10.4886C14.4008 10.4861 14.4008 10.4835 14.4008 10.481C14.2561 9.97299 14.0544 9.5033 13.7959 9.06424C13.7934 9.06424 13.7934 9.05913 13.7908 9.05658C13.7675 8.90342 13.7494 8.76558 13.7365 8.65581C13.7339 8.63028 13.7313 8.60731 13.7313 8.58689C13.7261 8.5486 13.7236 8.51541 13.721 8.48733C13.7132 8.3597 13.677 8.24994 13.615 8.14272C13.3074 7.5939 12.8214 7.27482 12.2243 7.10634C12.17 7.09103 12.1131 7.07826 12.0588 7.0655C12.0304 7.05784 11.9994 7.05274 11.971 7.04763C11.9322 7.03997 11.8908 7.03232 11.852 7.02721C11.8029 7.017 11.7538 7.01189 11.7021 7.00424C11.653 6.99913 11.6013 6.99403 11.5496 6.99147C11.3325 6.98126 11.1515 7.05529 11.0042 7.21355C10.9551 7.26971 10.9085 7.32332 10.8568 7.37948C10.7509 7.49945 10.6423 7.61432 10.5415 7.73175C10.314 7.98701 10.3192 8.27291 10.4872 8.55881C10.7302 8.96979 11.1257 9.06679 11.5522 9.10763C11.6478 9.1204 11.7383 9.08466 11.8288 9.04637C11.9658 8.98766 12.0227 9.02339 12.0304 9.16634C12.0356 9.24292 12.0356 9.32206 12.0382 9.40119C12.0563 9.68454 11.6272 11.1625 11.5005 11.4152C11.4746 11.4867 11.4281 11.5735 11.3764 11.6475C11.3609 11.6705 11.3428 11.6909 11.3273 11.7088C11.2678 11.5965 11.1825 11.4918 11.0791 11.3974C10.9887 11.3131 10.8827 11.2366 10.7638 11.1727C10.4303 10.9813 10.0012 10.869 9.52817 10.869C8.90519 10.869 8.34942 11.0681 8.00045 11.3795H7.99528C6.74675 10.4733 5.05101 10.4682 3.59568 11.7675C3.56466 11.7956 3.53364 11.8237 3.50262 11.8569H3.45092C3.6603 10.8919 4.12043 10.1364 4.82871 9.58753C5.53699 9.03871 6.43655 8.76558 7.52999 8.76558C8.62343 8.76558 9.46354 9.0285 10.115 9.55945C10.4743 9.85046 10.7534 10.2129 10.9525 10.6494C11.0249 10.4044 11.1127 10.093 11.1774 9.83004C10.7302 9.75346 10.177 9.54924 9.82027 8.94681C9.4713 8.36481 9.52299 7.72154 9.95468 7.23142C10.0271 7.14463 10.1098 7.05784 10.1899 6.9685L10.4251 6.70813C10.4613 6.66728 10.5001 6.62899 10.5363 6.59581C10.5725 6.56518 10.6009 6.5422 10.6268 6.52178C10.6423 6.50902 10.6759 6.48349 10.7121 6.46052L10.756 6.43244C9.84095 6.03678 8.81213 5.84277 7.67216 5.84277C5.2604 5.84277 3.37854 6.56263 2.02919 7.99978C0.674675 9.43693 0 11.28 0 13.5314C0 15.7829 0.734129 17.7152 2.19722 19.1039C3.66289 20.4951 5.60161 21.1894 8.01596 21.1894C10.4303 21.1894 12.5629 20.1888 14.0777 18.1824L12.0666 16.2245C11.0895 17.5314 9.75823 18.1824 8.07283 18.1824C6.79069 18.1824 5.72569 17.8811 4.88299 17.2762C4.04029 16.6712 3.55432 15.8007 3.4199 14.6648H12.3613C12.4078 14.6571 12.4543 14.6597 12.5009 14.6648C12.5164 14.6648 12.5293 14.6648 12.5448 14.6648H13.646C14.026 14.6648 14.3801 14.4504 14.5301 14.1058C14.5301 14.1058 14.5301 14.1006 14.5326 14.1006C14.6541 13.8147 14.7394 13.5263 14.7834 13.2532C14.7834 13.2327 14.786 13.2149 14.7886 13.1944L14.7937 13.1562C14.8067 13.0515 14.817 12.9571 14.8222 12.8703C14.8247 12.8218 14.8273 12.7758 14.8273 12.7299C14.8299 12.6839 14.8299 12.638 14.8299 12.592C14.8273 11.9947 14.6748 11.3463 14.499 10.8741ZM10.1046 11.1115C10.0943 11.1574 10.1796 11.1447 10.1046 11.1115V11.1115Z" fill="black"></path><path d="M44.0844 1.20804C44.4566 0.886404 44.9116 0.725586 45.4492 0.725586C45.9869 0.725586 46.4367 0.891509 46.7986 1.2208C47.1631 1.55265 47.344 1.95342 47.344 2.42566C47.344 2.93619 47.1631 3.35738 46.7986 3.68923C46.4341 4.02108 45.9843 4.18445 45.4492 4.18445C44.8754 4.18445 44.4101 4.01852 44.0559 3.68923C43.7018 3.35738 43.5234 2.93619 43.5234 2.42566C43.5234 1.91513 43.7096 1.52712 44.0844 1.20549V1.20804Z" fill="black"></path><path d="M17.1094 6.18507H20.3845V7.51756C21.5141 6.41992 23.047 5.87109 24.9806 5.87109C28.9821 5.87109 30.9854 8.11233 30.9854 12.5948V20.9344H27.7103V12.8501C27.7103 11.4512 27.413 10.4378 26.8211 9.81496C26.2265 9.19211 25.2985 8.87813 24.0345 8.87813C23.2306 8.87813 22.5016 9.10021 21.8502 9.54438C21.1988 9.98854 20.7102 10.5986 20.3845 11.3746V20.9344H17.1094V6.18507Z" fill="black"></path><path d="M41.8745 6.18511H39.4627V5.70265C39.4627 3.73455 38.9638 2.29485 37.9686 1.37589C36.9734 0.45948 35.7275 0 34.2333 0C33.3131 0 32.566 0.160818 31.9922 0.482454L33.1425 3.29039C33.3907 3.10149 33.6983 3.00704 34.0627 3.00704C35.4793 3.00704 36.1876 3.93366 36.1876 5.78689V6.18511H32.367V9.19215H36.1876V20.937H39.4627V9.19215H41.8745V6.18511Z" fill="black"></path><path d="M47.072 6.18555H43.7969V20.9374H47.072V6.18555Z" fill="black"></path><path d="M49.1354 6.18551H51.7204V3.15039H54.9955V6.18551H59.8216V9.19255H54.9955V14.8952C54.9955 16.0669 55.1428 16.8939 55.4401 17.3764C55.7374 17.8588 56.2311 18.0988 56.9187 18.0988C57.6839 18.0988 58.3947 17.6827 59.0435 16.8505L60.9978 18.6655C60.5764 19.3853 59.9586 19.9699 59.1444 20.4243C58.3301 20.8786 57.4254 21.1058 56.4302 21.1058C54.9748 21.1058 53.8245 20.6515 52.9818 19.7453C52.1391 18.8365 51.7178 17.5219 51.7178 15.8014V9.19255H49.1328V6.18551H49.1354Z" fill="black"></path></svg> 