<?xml version="1.0" encoding="UTF-8"?> <svg xmlns="http://www.w3.org/2000/svg" width="24" height="24" viewBox="0 0 24 24" fill="none"><path d="M21.2664 21.4066C21.2661 21.5639 21.2014 21.7147 21.0865 21.8259C20.9716 21.9371 20.8159 21.9997 20.6534 22H3.34357C3.18124 21.9995 3.02574 21.9368 2.91105 21.8256C2.79637 21.7143 2.73184 21.5637 2.73157 21.4066V8.73894C2.73184 8.58162 2.79651 8.43083 2.91141 8.31959C3.02631 8.20835 3.18207 8.14575 3.34457 8.14549H20.6534C20.8159 8.14575 20.9716 8.20835 21.0865 8.31959C21.2014 8.43083 21.2661 8.58162 21.2664 8.73894V21.4066ZM18.2344 18.0956V16.9388C18.2344 16.9182 18.226 16.8985 18.211 16.884C18.196 16.8695 18.1756 16.8613 18.1544 16.8613H12.7815V18.1789H18.1544C18.1652 18.1789 18.1758 18.1768 18.1857 18.1727C18.1956 18.1687 18.2046 18.1627 18.212 18.1552C18.2195 18.1477 18.2253 18.1388 18.2292 18.1291C18.233 18.1193 18.2348 18.109 18.2344 18.0985V18.0956ZM19.0514 15.5912V14.4285C19.0516 14.4182 19.0498 14.408 19.046 14.3985C19.0421 14.3889 19.0364 14.3802 19.029 14.3728C19.0217 14.3654 19.0129 14.3595 19.0032 14.3554C18.9934 14.3514 18.983 14.3492 18.9724 14.3491H12.7825V15.6676H18.9714C18.9923 15.6677 19.0123 15.6598 19.0273 15.6456C19.0422 15.6315 19.0509 15.6123 19.0514 15.5921V15.5883V15.5912ZM18.2344 13.0857V11.9192C18.2344 11.8986 18.226 11.8789 18.211 11.8644C18.196 11.8499 18.1756 11.8417 18.1544 11.8417H12.7815V13.1593H18.1544C18.1754 13.1593 18.1956 13.1513 18.2106 13.1369C18.2256 13.1226 18.2341 13.1032 18.2344 13.0828V13.0857ZM8.14951 14.4798V15.6667H9.91949C9.77449 16.3908 9.1155 16.9175 8.14951 16.9175C7.63659 16.9017 7.15014 16.6933 6.79309 16.3364C6.43604 15.9796 6.23639 15.5023 6.23639 15.0055C6.23639 14.5086 6.43604 14.0313 6.79309 13.6745C7.15014 13.3176 7.63659 13.1093 8.14951 13.0935C8.61538 13.0858 9.06561 13.2562 9.40249 13.5678L10.3365 12.6656C9.74519 12.1269 8.96136 11.8309 8.14951 11.8398C7.28266 11.8398 6.45131 12.1731 5.83836 12.7666C5.2254 13.36 4.88105 14.1648 4.88105 15.004C4.88105 15.8432 5.2254 16.6481 5.83836 17.2415C6.45131 17.8349 7.28266 18.1683 8.14951 18.1683C10.0395 18.1683 11.2825 16.8826 11.2825 15.0732C11.2812 14.8725 11.2638 14.6721 11.2305 14.474L8.14951 14.4798ZM2.26958 8.29264C2.27037 8.13549 2.3352 7.98498 2.44999 7.87386C2.56478 7.76273 2.72024 7.69996 2.88257 7.6992H15.0364L13.7674 4.32052C13.7188 4.17656 13.6136 4.05694 13.4745 3.98754C13.3355 3.91814 13.1738 3.90456 13.0244 3.94974L0.367601 8.40978C0.222052 8.46787 0.106277 8.57952 0.0457127 8.72021C-0.0148514 8.86089 -0.0152498 9.0191 0.044605 9.16006L2.26958 15.0771V8.29264ZM2.26958 8.29264C2.27037 8.13549 2.3352 7.98498 2.44999 7.87386C2.56478 7.76273 2.72024 7.69996 2.88257 7.6992H15.0364L13.7674 4.32052C13.7188 4.17656 13.6136 4.05694 13.4745 3.98754C13.3355 3.91814 13.1738 3.90456 13.0244 3.94974L0.367601 8.40978C0.222052 8.46787 0.106277 8.57952 0.0457127 8.72021C-0.0148514 8.86089 -0.0152498 9.0191 0.044605 9.16006L2.26958 15.0771V8.29264ZM23.5813 7.99253L14.7784 5.69813L15.5294 7.6992H21.1134C21.2758 7.69945 21.4316 7.76206 21.5465 7.8733C21.6614 7.98453 21.7261 8.13533 21.7263 8.29264V16.8061L23.9733 8.70796C23.9965 8.63601 24.0047 8.56034 23.9975 8.4853C23.9903 8.41027 23.9678 8.33735 23.9314 8.27076C23.8949 8.20417 23.8452 8.14522 23.7852 8.0973C23.7251 8.04938 23.6558 8.01441 23.5813 7.99253ZM19.0854 6.36999V3.58863C19.0848 3.43218 19.0202 3.28232 18.9057 3.17197C18.7911 3.06161 18.636 2.99977 18.4744 3.00003H5.52354C5.44335 2.99926 5.36379 3.01381 5.28942 3.04284C5.21504 3.07188 5.14731 3.11482 5.09009 3.16922C5.03288 3.22362 4.98731 3.28841 4.95598 3.35988C4.92466 3.43135 4.9082 3.5081 4.90755 3.58573V6.33224L13.2974 3.37759C13.4477 3.33244 13.6103 3.34684 13.7496 3.41762C13.8889 3.48841 13.9935 3.60979 14.0404 3.75515L14.5844 5.2044L19.0854 6.36999Z" fill="black"></path></svg> 