<?xml version="1.0" encoding="UTF-8"?> <svg xmlns="http://www.w3.org/2000/svg" width="50" height="50" viewBox="0 0 50 50" fill="none"><path d="M0.00530574 44.5856L8.20205 10.8936L18.2969 25.2328L1.50638 45.1917C1.35762 45.3399 0.938407 45.5958 0.492141 45.3938C0.0421005 45.1899 -0.0217406 44.7742 0.00530574 44.5856Z" fill="url(#paint0_linear_24531_128628)"></path><path fill-rule="evenodd" clip-rule="evenodd" d="M8.20117 10.8734L24.914 5.05273L44.164 33.5903L25.5986 43.5744L8.20117 10.8734Z" fill="url(#paint1_linear_24531_128628)"></path><path d="M48.0881 0.421743L25.5508 43.5739L44.4192 33.47L49.8217 1.18657C49.8485 0.931629 49.9426 0.300984 49.2571 0.0594621C48.7133 -0.132263 48.209 0.180222 48.0881 0.421743Z" fill="#2F2F2F"></path><defs><linearGradient id="paint0_linear_24531_128628" x1="10.568" y1="23.8394" x2="-3.17387" y2="48.6154" gradientUnits="userSpaceOnUse"><stop></stop><stop offset="1" stop-color="#2F2F2F"></stop></linearGradient><linearGradient id="paint1_linear_24531_128628" x1="16.8764" y1="7.57873" x2="32.354" y2="31.4051" gradientUnits="userSpaceOnUse"><stop stop-color="#2F2F2F"></stop><stop offset="1"></stop></linearGradient></defs></svg> 